<svg xmlns="http://www.w3.org/2000/svg" xmlns:xlink="http://www.w3.org/1999/xlink" width="1080" zoomAndPan="magnify" viewBox="0 0 810 809.999993" height="1080" preserveAspectRatio="xMidYMid meet" version="1.0"><defs><clipPath id="6de68a425e"><path d="M 152.300781 40.210938 L 405 40.210938 L 405 624 L 152.300781 624 Z M 152.300781 40.210938 " clip-rule="nonzero"/></clipPath><clipPath id="881e54871d"><path d="M 405 186 L 657.800781 186 L 657.800781 769.960938 L 405 769.960938 Z M 405 186 " clip-rule="nonzero"/></clipPath></defs><g clip-path="url(#6de68a425e)"><path fill="#0388a6" d="M 405 40.351562 L 405 186.246094 L 278.648438 259.191406 L 278.648438 405.082031 L 405 478.03125 L 405 623.921875 L 152.300781 478.03125 L 152.300781 186.246094 Z M 405 40.351562 " fill-opacity="1" fill-rule="evenodd"/></g><g clip-path="url(#881e54871d)"><path fill="#04d9d9" d="M 405 332.136719 L 531.347656 405.082031 L 531.347656 550.976562 L 405 623.921875 L 405 769.8125 L 657.695312 623.921875 L 657.695312 332.136719 L 405 186.246094 Z M 405 332.136719 " fill-opacity="1" fill-rule="evenodd"/></g><path fill="#04d9d9" d="M 483.960938 85.945312 L 483.960938 195.363281 L 578.730469 250.074219 L 578.730469 140.652344 Z M 483.960938 85.945312 " fill-opacity="1" fill-rule="evenodd"/></svg>